<mxfile host="app.diagrams.net" agent="Mozilla/5.0 (Windows NT 10.0; Win64; x64; rv:131.0) Gecko/20100101 Firefox/131.0" version="26.1.1">
  <diagram name="Page-1" id="SceRAEr4iBi3qjNG2Zwd">
    <mxGraphModel dx="3970" dy="2070" grid="1" gridSize="10" guides="1" tooltips="1" connect="1" arrows="1" fold="1" page="1" pageScale="1" pageWidth="1600" pageHeight="1200" math="0" shadow="0">
      <root>
        <mxCell id="0" />
        <mxCell id="1" parent="0" />
        <mxCell id="-WS0U3CNcQHrBC4Fadn6-14" value="" style="edgeStyle=orthogonalEdgeStyle;rounded=0;orthogonalLoop=1;jettySize=auto;html=1;strokeWidth=10;fontSize=40;fontStyle=1" edge="1" parent="1" source="-WS0U3CNcQHrBC4Fadn6-2" target="-WS0U3CNcQHrBC4Fadn6-3">
          <mxGeometry relative="1" as="geometry">
            <mxPoint x="210" y="555" as="targetPoint" />
          </mxGeometry>
        </mxCell>
        <mxCell id="-WS0U3CNcQHrBC4Fadn6-2" value="" style="rounded=0;whiteSpace=wrap;html=1;strokeWidth=10;fillColor=#fff2cc;strokeColor=#d6b656;fontSize=40;fontStyle=1" vertex="1" parent="1">
          <mxGeometry x="100" y="79" width="60" height="970" as="geometry" />
        </mxCell>
        <mxCell id="-WS0U3CNcQHrBC4Fadn6-16" value="" style="edgeStyle=orthogonalEdgeStyle;rounded=0;orthogonalLoop=1;jettySize=auto;html=1;entryX=0;entryY=0.5;entryDx=0;entryDy=0;strokeWidth=10;fontSize=40;fontStyle=1" edge="1" parent="1" source="-WS0U3CNcQHrBC4Fadn6-3" target="-WS0U3CNcQHrBC4Fadn6-4">
          <mxGeometry relative="1" as="geometry">
            <mxPoint x="400" y="600" as="targetPoint" />
          </mxGeometry>
        </mxCell>
        <mxCell id="-WS0U3CNcQHrBC4Fadn6-3" value="" style="rounded=0;whiteSpace=wrap;html=1;strokeWidth=10;fillColor=#fff2cc;strokeColor=#d6b656;fontSize=40;fontStyle=1" vertex="1" parent="1">
          <mxGeometry x="250" y="170" width="60" height="790" as="geometry" />
        </mxCell>
        <mxCell id="-WS0U3CNcQHrBC4Fadn6-4" value="" style="rounded=0;whiteSpace=wrap;html=1;strokeWidth=10;fillColor=#fff2cc;strokeColor=#d6b656;fontSize=40;fontStyle=1" vertex="1" parent="1">
          <mxGeometry x="410" y="319" width="60" height="490" as="geometry" />
        </mxCell>
        <mxCell id="-WS0U3CNcQHrBC4Fadn6-18" value="" style="edgeStyle=orthogonalEdgeStyle;rounded=0;orthogonalLoop=1;jettySize=auto;html=1;entryX=0;entryY=0.5;entryDx=0;entryDy=0;strokeWidth=10;fontSize=40;fontStyle=1" edge="1" parent="1" source="-WS0U3CNcQHrBC4Fadn6-5" target="-WS0U3CNcQHrBC4Fadn6-6">
          <mxGeometry relative="1" as="geometry">
            <mxPoint x="730" y="625" as="targetPoint" />
          </mxGeometry>
        </mxCell>
        <mxCell id="-WS0U3CNcQHrBC4Fadn6-5" value="" style="rounded=0;whiteSpace=wrap;html=1;strokeWidth=10;fillColor=#d5e8d4;strokeColor=#82b366;fontSize=40;fontStyle=1" vertex="1" parent="1">
          <mxGeometry x="480" y="320" width="60" height="490" as="geometry" />
        </mxCell>
        <mxCell id="-WS0U3CNcQHrBC4Fadn6-20" value="" style="edgeStyle=orthogonalEdgeStyle;rounded=0;orthogonalLoop=1;jettySize=auto;html=1;entryX=0;entryY=0.5;entryDx=0;entryDy=0;strokeWidth=10;fontSize=40;fontStyle=1" edge="1" parent="1" source="-WS0U3CNcQHrBC4Fadn6-6" target="-WS0U3CNcQHrBC4Fadn6-8">
          <mxGeometry relative="1" as="geometry">
            <mxPoint x="960" y="625" as="targetPoint" />
          </mxGeometry>
        </mxCell>
        <mxCell id="-WS0U3CNcQHrBC4Fadn6-6" value="" style="rounded=0;whiteSpace=wrap;html=1;strokeWidth=10;fillColor=#fff2cc;strokeColor=#d6b656;fontSize=40;fontStyle=1" vertex="1" parent="1">
          <mxGeometry x="620" y="395" width="60" height="340" as="geometry" />
        </mxCell>
        <mxCell id="-WS0U3CNcQHrBC4Fadn6-21" value="" style="edgeStyle=orthogonalEdgeStyle;rounded=0;orthogonalLoop=1;jettySize=auto;html=1;strokeWidth=10;fontSize=40;fontStyle=1" edge="1" parent="1" source="-WS0U3CNcQHrBC4Fadn6-7" target="-WS0U3CNcQHrBC4Fadn6-9">
          <mxGeometry relative="1" as="geometry" />
        </mxCell>
        <mxCell id="-WS0U3CNcQHrBC4Fadn6-7" value="" style="rounded=0;whiteSpace=wrap;html=1;strokeWidth=10;fillColor=#d5e8d4;strokeColor=#82b366;fontSize=40;fontStyle=1" vertex="1" parent="1">
          <mxGeometry x="830" y="455" width="60" height="215" as="geometry" />
        </mxCell>
        <mxCell id="-WS0U3CNcQHrBC4Fadn6-8" value="" style="rounded=0;whiteSpace=wrap;html=1;strokeWidth=10;fillColor=#fff2cc;strokeColor=#d6b656;fontSize=40;fontStyle=1" vertex="1" parent="1">
          <mxGeometry x="760" y="455" width="60" height="220" as="geometry" />
        </mxCell>
        <mxCell id="-WS0U3CNcQHrBC4Fadn6-23" value="" style="edgeStyle=orthogonalEdgeStyle;rounded=0;orthogonalLoop=1;jettySize=auto;html=1;entryX=0;entryY=0.5;entryDx=0;entryDy=0;strokeWidth=10;fontSize=40;fontStyle=1" edge="1" parent="1" source="-WS0U3CNcQHrBC4Fadn6-9" target="-WS0U3CNcQHrBC4Fadn6-11">
          <mxGeometry relative="1" as="geometry">
            <mxPoint x="1420" y="585" as="targetPoint" />
          </mxGeometry>
        </mxCell>
        <mxCell id="-WS0U3CNcQHrBC4Fadn6-25" value="" style="edgeStyle=orthogonalEdgeStyle;rounded=0;orthogonalLoop=1;jettySize=auto;html=1;entryX=0;entryY=0.5;entryDx=0;entryDy=0;strokeWidth=10;fontSize=40;fontStyle=1" edge="1" parent="1" source="-WS0U3CNcQHrBC4Fadn6-9" target="-WS0U3CNcQHrBC4Fadn6-10">
          <mxGeometry relative="1" as="geometry">
            <mxPoint x="1420" y="585" as="targetPoint" />
          </mxGeometry>
        </mxCell>
        <mxCell id="-WS0U3CNcQHrBC4Fadn6-9" value="" style="rounded=0;whiteSpace=wrap;html=1;strokeWidth=10;fillColor=#f5f5f5;fontColor=#333333;strokeColor=#666666;fontSize=40;fontStyle=1" vertex="1" parent="1">
          <mxGeometry x="980" y="80" width="60" height="970" as="geometry" />
        </mxCell>
        <mxCell id="-WS0U3CNcQHrBC4Fadn6-29" value="" style="edgeStyle=orthogonalEdgeStyle;rounded=0;orthogonalLoop=1;jettySize=auto;html=1;entryX=0;entryY=0.5;entryDx=0;entryDy=0;strokeWidth=10;fontSize=40;fontStyle=1" edge="1" parent="1" source="-WS0U3CNcQHrBC4Fadn6-10" target="-WS0U3CNcQHrBC4Fadn6-26">
          <mxGeometry relative="1" as="geometry">
            <mxPoint x="1330" y="731.5" as="targetPoint" />
          </mxGeometry>
        </mxCell>
        <mxCell id="-WS0U3CNcQHrBC4Fadn6-10" value="" style="rounded=0;whiteSpace=wrap;html=1;strokeWidth=10;fillColor=#f8cecc;strokeColor=#b85450;fontSize=40;fontStyle=1" vertex="1" parent="1">
          <mxGeometry x="1190" y="626.5" width="60" height="210" as="geometry" />
        </mxCell>
        <mxCell id="-WS0U3CNcQHrBC4Fadn6-27" value="" style="edgeStyle=orthogonalEdgeStyle;rounded=0;orthogonalLoop=1;jettySize=auto;html=1;strokeWidth=10;fontSize=40;fontStyle=1" edge="1" parent="1" source="-WS0U3CNcQHrBC4Fadn6-11" target="-WS0U3CNcQHrBC4Fadn6-26">
          <mxGeometry relative="1" as="geometry" />
        </mxCell>
        <mxCell id="-WS0U3CNcQHrBC4Fadn6-11" value="" style="rounded=0;whiteSpace=wrap;html=1;strokeWidth=10;fillColor=#f8cecc;strokeColor=#b85450;fontSize=40;fontStyle=1" vertex="1" parent="1">
          <mxGeometry x="1190" y="306.5" width="60" height="210" as="geometry" />
        </mxCell>
        <mxCell id="-WS0U3CNcQHrBC4Fadn6-61" value="" style="edgeStyle=orthogonalEdgeStyle;rounded=0;orthogonalLoop=1;jettySize=auto;html=1;entryX=0;entryY=0.5;entryDx=0;entryDy=0;strokeWidth=10;fontSize=40;fontStyle=1" edge="1" parent="1" source="-WS0U3CNcQHrBC4Fadn6-26" target="-WS0U3CNcQHrBC4Fadn6-45">
          <mxGeometry relative="1" as="geometry">
            <mxPoint x="1740" y="572.5" as="targetPoint" />
          </mxGeometry>
        </mxCell>
        <mxCell id="-WS0U3CNcQHrBC4Fadn6-26" value="" style="rounded=0;whiteSpace=wrap;html=1;strokeWidth=10;fillColor=#dae8fc;strokeColor=#6c8ebf;fontSize=40;fontStyle=1" vertex="1" parent="1">
          <mxGeometry x="1450" y="476.5" width="60" height="210" as="geometry" />
        </mxCell>
        <mxCell id="-WS0U3CNcQHrBC4Fadn6-32" value="" style="rounded=0;whiteSpace=wrap;html=1;strokeWidth=10;fillColor=#fff2cc;strokeColor=#d6b656;flipH=0;flipV=1;fontSize=40;fontStyle=1" vertex="1" parent="1">
          <mxGeometry x="2600" y="95.25" width="60" height="970" as="geometry" />
        </mxCell>
        <mxCell id="-WS0U3CNcQHrBC4Fadn6-58" style="edgeStyle=orthogonalEdgeStyle;rounded=0;orthogonalLoop=1;jettySize=auto;html=1;entryX=0;entryY=0.5;entryDx=0;entryDy=0;strokeWidth=10;fontSize=40;fontStyle=1" edge="1" parent="1" source="-WS0U3CNcQHrBC4Fadn6-34" target="-WS0U3CNcQHrBC4Fadn6-32">
          <mxGeometry relative="1" as="geometry" />
        </mxCell>
        <mxCell id="-WS0U3CNcQHrBC4Fadn6-34" value="" style="rounded=0;whiteSpace=wrap;html=1;strokeWidth=10;fillColor=#fff2cc;strokeColor=#d6b656;flipH=0;flipV=1;fontSize=40;fontStyle=1" vertex="1" parent="1">
          <mxGeometry x="2440" y="184" width="60" height="790" as="geometry" />
        </mxCell>
        <mxCell id="-WS0U3CNcQHrBC4Fadn6-57" style="edgeStyle=orthogonalEdgeStyle;rounded=0;orthogonalLoop=1;jettySize=auto;html=1;entryX=0;entryY=0.5;entryDx=0;entryDy=0;strokeWidth=10;fontSize=40;fontStyle=1" edge="1" parent="1" source="-WS0U3CNcQHrBC4Fadn6-35" target="-WS0U3CNcQHrBC4Fadn6-34">
          <mxGeometry relative="1" as="geometry" />
        </mxCell>
        <mxCell id="-WS0U3CNcQHrBC4Fadn6-35" value="" style="rounded=0;whiteSpace=wrap;html=1;strokeWidth=10;fillColor=#fff2cc;strokeColor=#d6b656;flipH=0;flipV=1;fontSize=40;fontStyle=1" vertex="1" parent="1">
          <mxGeometry x="2280" y="336.5" width="60" height="490" as="geometry" />
        </mxCell>
        <mxCell id="-WS0U3CNcQHrBC4Fadn6-37" value="" style="rounded=0;whiteSpace=wrap;html=1;strokeWidth=10;fillColor=#d5e8d4;strokeColor=#82b366;flipH=0;flipV=1;fontSize=40;fontStyle=1" vertex="1" parent="1">
          <mxGeometry x="2210" y="339" width="60" height="490" as="geometry" />
        </mxCell>
        <mxCell id="-WS0U3CNcQHrBC4Fadn6-56" style="edgeStyle=orthogonalEdgeStyle;rounded=0;orthogonalLoop=1;jettySize=auto;html=1;strokeWidth=10;fontSize=40;fontStyle=1" edge="1" parent="1" source="-WS0U3CNcQHrBC4Fadn6-39" target="-WS0U3CNcQHrBC4Fadn6-37">
          <mxGeometry relative="1" as="geometry" />
        </mxCell>
        <mxCell id="-WS0U3CNcQHrBC4Fadn6-39" value="" style="rounded=0;whiteSpace=wrap;html=1;strokeWidth=10;fillColor=#fff2cc;strokeColor=#d6b656;flipH=0;flipV=1;fontSize=40;fontStyle=1" vertex="1" parent="1">
          <mxGeometry x="2040" y="412.75" width="60" height="340" as="geometry" />
        </mxCell>
        <mxCell id="-WS0U3CNcQHrBC4Fadn6-41" value="" style="rounded=0;whiteSpace=wrap;html=1;strokeWidth=10;fillColor=#d5e8d4;strokeColor=#82b366;flipH=0;flipV=1;fontSize=40;fontStyle=1" vertex="1" parent="1">
          <mxGeometry x="1820" y="476.5" width="60" height="215" as="geometry" />
        </mxCell>
        <mxCell id="-WS0U3CNcQHrBC4Fadn6-55" value="" style="edgeStyle=orthogonalEdgeStyle;rounded=0;orthogonalLoop=1;jettySize=auto;html=1;strokeWidth=10;fontSize=40;fontStyle=1" edge="1" parent="1" source="-WS0U3CNcQHrBC4Fadn6-42" target="-WS0U3CNcQHrBC4Fadn6-39">
          <mxGeometry relative="1" as="geometry" />
        </mxCell>
        <mxCell id="-WS0U3CNcQHrBC4Fadn6-42" value="" style="rounded=0;whiteSpace=wrap;html=1;strokeWidth=10;fillColor=#fff2cc;strokeColor=#d6b656;flipH=0;flipV=1;fontSize=40;fontStyle=1" vertex="1" parent="1">
          <mxGeometry x="1880" y="472.75" width="60" height="220" as="geometry" />
        </mxCell>
        <mxCell id="-WS0U3CNcQHrBC4Fadn6-54" value="" style="edgeStyle=orthogonalEdgeStyle;rounded=0;orthogonalLoop=1;jettySize=auto;html=1;entryX=0;entryY=0.5;entryDx=0;entryDy=0;strokeWidth=10;fontSize=40;fontStyle=1" edge="1" parent="1" source="-WS0U3CNcQHrBC4Fadn6-45" target="-WS0U3CNcQHrBC4Fadn6-41">
          <mxGeometry relative="1" as="geometry">
            <mxPoint x="1780" y="582.75" as="targetPoint" />
          </mxGeometry>
        </mxCell>
        <mxCell id="-WS0U3CNcQHrBC4Fadn6-45" value="" style="rounded=0;whiteSpace=wrap;html=1;strokeWidth=10;fillColor=#f5f5f5;fontColor=#333333;strokeColor=#666666;flipH=0;flipV=1;fontSize=40;fontStyle=1" vertex="1" parent="1">
          <mxGeometry x="1670" y="97.75" width="60" height="970" as="geometry" />
        </mxCell>
        <mxCell id="-WS0U3CNcQHrBC4Fadn6-62" value="" style="endArrow=none;html=1;rounded=0;strokeWidth=10;fontSize=40;fontStyle=1" edge="1" parent="1">
          <mxGeometry width="50" height="50" relative="1" as="geometry">
            <mxPoint x="30" y="1120" as="sourcePoint" />
            <mxPoint x="1280" y="1110" as="targetPoint" />
            <Array as="points">
              <mxPoint x="30" y="1180" />
              <mxPoint x="1280" y="1180" />
            </Array>
          </mxGeometry>
        </mxCell>
        <mxCell id="-WS0U3CNcQHrBC4Fadn6-63" value="&lt;font&gt;3&lt;/font&gt;" style="text;html=1;align=center;verticalAlign=middle;resizable=0;points=[];autosize=1;strokeColor=none;fillColor=none;fontSize=40;fontStyle=1" vertex="1" parent="1">
          <mxGeometry x="105" y="1103" width="50" height="60" as="geometry" />
        </mxCell>
        <mxCell id="-WS0U3CNcQHrBC4Fadn6-64" value="32" style="text;html=1;align=center;verticalAlign=middle;resizable=0;points=[];autosize=1;strokeColor=none;fillColor=none;fontSize=40;fontStyle=1" vertex="1" parent="1">
          <mxGeometry x="240" y="1103" width="70" height="60" as="geometry" />
        </mxCell>
        <mxCell id="-WS0U3CNcQHrBC4Fadn6-65" value="64" style="text;html=1;align=center;verticalAlign=middle;resizable=0;points=[];autosize=1;strokeColor=none;fillColor=none;fontSize=40;fontStyle=1" vertex="1" parent="1">
          <mxGeometry x="450" y="1103" width="70" height="60" as="geometry" />
        </mxCell>
        <mxCell id="-WS0U3CNcQHrBC4Fadn6-66" value="128" style="text;html=1;align=center;verticalAlign=middle;resizable=0;points=[];autosize=1;strokeColor=none;fillColor=none;fontSize=40;fontStyle=1" vertex="1" parent="1">
          <mxGeometry x="605" y="1103" width="90" height="60" as="geometry" />
        </mxCell>
        <mxCell id="-WS0U3CNcQHrBC4Fadn6-68" value="256" style="text;html=1;align=center;verticalAlign=middle;resizable=0;points=[];autosize=1;strokeColor=none;fillColor=none;fontSize=40;fontStyle=1" vertex="1" parent="1">
          <mxGeometry x="770" y="1103" width="90" height="60" as="geometry" />
        </mxCell>
        <mxCell id="-WS0U3CNcQHrBC4Fadn6-69" value="1024" style="text;html=1;align=center;verticalAlign=middle;resizable=0;points=[];autosize=1;strokeColor=none;fillColor=none;fontSize=40;fontStyle=1" vertex="1" parent="1">
          <mxGeometry x="955" y="1103" width="110" height="60" as="geometry" />
        </mxCell>
        <mxCell id="-WS0U3CNcQHrBC4Fadn6-70" value="95" style="text;html=1;align=center;verticalAlign=middle;resizable=0;points=[];autosize=1;strokeColor=none;fillColor=none;fontSize=40;fontStyle=1" vertex="1" parent="1">
          <mxGeometry x="1170" y="1103" width="70" height="60" as="geometry" />
        </mxCell>
        <mxCell id="-WS0U3CNcQHrBC4Fadn6-72" value="&lt;font style=&quot;font-size: 40px;&quot;&gt;Mean&lt;/font&gt;" style="text;html=1;align=center;verticalAlign=middle;resizable=0;points=[];autosize=1;strokeColor=none;fillColor=none;fontStyle=3;fontFamily=Times New Roman;" vertex="1" parent="1">
          <mxGeometry x="1175" y="223" width="110" height="60" as="geometry" />
        </mxCell>
        <mxCell id="-WS0U3CNcQHrBC4Fadn6-73" value="&lt;font style=&quot;font-size: 40px;&quot;&gt;Variance&lt;/font&gt;" style="text;html=1;align=center;verticalAlign=middle;resizable=0;points=[];autosize=1;strokeColor=none;fillColor=none;fontStyle=3;fontFamily=Times New Roman;" vertex="1" parent="1">
          <mxGeometry x="1140" y="880" width="160" height="60" as="geometry" />
        </mxCell>
        <mxCell id="-WS0U3CNcQHrBC4Fadn6-74" value="&lt;div&gt;&lt;font style=&quot;font-size: 40px;&quot;&gt;Z-dim&lt;/font&gt;&lt;/div&gt;&lt;div&gt;&lt;font style=&quot;font-size: 40px;&quot;&gt;Vector&lt;br&gt;&lt;/font&gt;&lt;/div&gt;" style="text;html=1;align=center;verticalAlign=middle;resizable=0;points=[];autosize=1;strokeColor=none;fillColor=none;fontStyle=3;fontFamily=Times New Roman;" vertex="1" parent="1">
          <mxGeometry x="1435" y="710" width="130" height="110" as="geometry" />
        </mxCell>
        <mxCell id="-WS0U3CNcQHrBC4Fadn6-75" value="" style="endArrow=none;html=1;rounded=0;strokeWidth=10;fontSize=40;fontStyle=1" edge="1" parent="1">
          <mxGeometry width="50" height="50" relative="1" as="geometry">
            <mxPoint x="1600" y="1111.5" as="sourcePoint" />
            <mxPoint x="2720" y="1090" as="targetPoint" />
            <Array as="points">
              <mxPoint x="1600" y="1171.5" />
              <mxPoint x="2720" y="1172" />
            </Array>
          </mxGeometry>
        </mxCell>
        <mxCell id="-WS0U3CNcQHrBC4Fadn6-76" value="&lt;font&gt;3&lt;/font&gt;" style="text;html=1;align=center;verticalAlign=middle;resizable=0;points=[];autosize=1;strokeColor=none;fillColor=none;fontSize=40;fontStyle=1" vertex="1" parent="1">
          <mxGeometry x="2610" y="1103" width="50" height="60" as="geometry" />
        </mxCell>
        <mxCell id="-WS0U3CNcQHrBC4Fadn6-77" value="32" style="text;html=1;align=center;verticalAlign=middle;resizable=0;points=[];autosize=1;strokeColor=none;fillColor=none;fontSize=40;fontStyle=1" vertex="1" parent="1">
          <mxGeometry x="2435" y="1094.5" width="70" height="60" as="geometry" />
        </mxCell>
        <mxCell id="-WS0U3CNcQHrBC4Fadn6-78" value="64" style="text;html=1;align=center;verticalAlign=middle;resizable=0;points=[];autosize=1;strokeColor=none;fillColor=none;fontSize=40;fontStyle=1" vertex="1" parent="1">
          <mxGeometry x="2230" y="1094.5" width="70" height="60" as="geometry" />
        </mxCell>
        <mxCell id="-WS0U3CNcQHrBC4Fadn6-79" value="128" style="text;html=1;align=center;verticalAlign=middle;resizable=0;points=[];autosize=1;strokeColor=none;fillColor=none;fontSize=40;fontStyle=1" vertex="1" parent="1">
          <mxGeometry x="2020" y="1094.5" width="90" height="60" as="geometry" />
        </mxCell>
        <mxCell id="-WS0U3CNcQHrBC4Fadn6-80" value="256" style="text;html=1;align=center;verticalAlign=middle;resizable=0;points=[];autosize=1;strokeColor=none;fillColor=none;fontSize=40;fontStyle=1" vertex="1" parent="1">
          <mxGeometry x="1830" y="1103" width="90" height="60" as="geometry" />
        </mxCell>
        <mxCell id="-WS0U3CNcQHrBC4Fadn6-81" value="1024" style="text;html=1;align=center;verticalAlign=middle;resizable=0;points=[];autosize=1;strokeColor=none;fillColor=none;fontSize=40;fontStyle=1" vertex="1" parent="1">
          <mxGeometry x="1645" y="1103" width="110" height="60" as="geometry" />
        </mxCell>
        <mxCell id="-WS0U3CNcQHrBC4Fadn6-83" value="" style="rounded=0;whiteSpace=wrap;html=1;fillColor=#fff2cc;strokeColor=#d6b656;" vertex="1" parent="1">
          <mxGeometry x="480" y="1500" width="120" height="60" as="geometry" />
        </mxCell>
        <mxCell id="-WS0U3CNcQHrBC4Fadn6-84" value="&lt;div&gt;&lt;font face=&quot;Times New Roman&quot;&gt;&lt;b&gt;&lt;i&gt;&lt;font style=&quot;font-size: 40px;&quot;&gt;Convolution Layer&lt;/font&gt;&lt;/i&gt;&lt;/b&gt;&lt;/font&gt;&lt;/div&gt;&lt;div&gt;&lt;font style=&quot;font-size: 40px;&quot; face=&quot;Times New Roman&quot;&gt;&lt;b&gt;&lt;i&gt;Leaky Relu&lt;br&gt;&lt;/i&gt;&lt;/b&gt;&lt;/font&gt;&lt;/div&gt;" style="text;html=1;align=center;verticalAlign=middle;whiteSpace=wrap;rounded=0;" vertex="1" parent="1">
          <mxGeometry x="620" y="1440" width="390" height="180" as="geometry" />
        </mxCell>
        <mxCell id="-WS0U3CNcQHrBC4Fadn6-85" value="" style="rounded=0;whiteSpace=wrap;html=1;fillColor=#d5e8d4;strokeColor=#82b366;" vertex="1" parent="1">
          <mxGeometry x="1110" y="1500" width="120" height="60" as="geometry" />
        </mxCell>
        <mxCell id="-WS0U3CNcQHrBC4Fadn6-86" value="&lt;font face=&quot;Times New Roman&quot; style=&quot;font-size: 40px;&quot;&gt;&lt;i&gt;&lt;b&gt;Batch Normalization&lt;/b&gt;&lt;/i&gt;&lt;/font&gt;" style="text;html=1;align=center;verticalAlign=middle;whiteSpace=wrap;rounded=0;" vertex="1" parent="1">
          <mxGeometry x="1170" y="1440" width="550" height="180" as="geometry" />
        </mxCell>
        <mxCell id="-WS0U3CNcQHrBC4Fadn6-87" value="" style="rounded=0;whiteSpace=wrap;html=1;fillColor=#f5f5f5;strokeColor=#666666;fontColor=#333333;" vertex="1" parent="1">
          <mxGeometry x="1720" y="1500" width="120" height="60" as="geometry" />
        </mxCell>
        <mxCell id="-WS0U3CNcQHrBC4Fadn6-88" value="&lt;font style=&quot;font-size: 40px;&quot; face=&quot;Times New Roman&quot;&gt;&lt;i&gt;&lt;b&gt;Fully Connected&lt;/b&gt;&lt;/i&gt;&lt;/font&gt;" style="text;html=1;align=center;verticalAlign=middle;whiteSpace=wrap;rounded=0;" vertex="1" parent="1">
          <mxGeometry x="1740" y="1440" width="550" height="180" as="geometry" />
        </mxCell>
        <mxCell id="-WS0U3CNcQHrBC4Fadn6-89" value="&lt;font style=&quot;font-size: 60px;&quot; face=&quot;Times New Roman&quot;&gt;&lt;i&gt;&lt;b&gt;Encoder&lt;/b&gt;&lt;/i&gt;&lt;/font&gt;" style="text;html=1;align=center;verticalAlign=middle;whiteSpace=wrap;rounded=0;" vertex="1" parent="1">
          <mxGeometry x="440" y="1240" width="450" height="120" as="geometry" />
        </mxCell>
        <mxCell id="-WS0U3CNcQHrBC4Fadn6-90" value="&lt;font style=&quot;font-size: 60px;&quot; face=&quot;Times New Roman&quot;&gt;&lt;i&gt;&lt;b&gt;Decoder&lt;/b&gt;&lt;/i&gt;&lt;/font&gt;" style="text;html=1;align=center;verticalAlign=middle;whiteSpace=wrap;rounded=0;" vertex="1" parent="1">
          <mxGeometry x="2040" y="1240" width="450" height="120" as="geometry" />
        </mxCell>
      </root>
    </mxGraphModel>
  </diagram>
</mxfile>
